<svg xmlns="http://www.w3.org/2000/svg" viewBox="0 0 144.422 70.558"><defs><style>.a{fill:#575656;}.b{fill:#f39500;}.c{fill:#fff;}.d{fill:#e4ded4;}.e{fill:#f1a833;}</style></defs><path class="a" d="M144.376,50.772c0-.321-.046-.459-.413-.367a18.9,18.9,0,0,1-5.556.551c-2.709-.138-4.454-1.194-5.281-4.179a17.186,17.186,0,0,1-.505-4.592c-.046-8.633,0-17.266-.046-25.945,0-.505.184-.643.643-.643h10.424c.459,0,.643-.092.643-.6-.046-1.837-.046-3.628,0-5.465,0-.505-.138-.6-.6-.6H133.171a.548.548,0,0,1-.643-.505c-.551-2.893-1.1-5.74-1.7-8.633h-6.475V8.066c0,.872,0,.872-.827.872H117.1a.754.754,0,0,0-.735.321c-1.7,2.388-3.4,4.73-5.1,7.072-2.939,4.041-5.832,8.082-8.771,12.123-.184.276-.321.321-.551.046-1.837-2.25-3.674-4.454-5.465-6.659-1.561-1.929-3.169-3.857-4.73-5.786a1.22,1.22,0,0,0-1.1-.505c-1.24.046-2.48,0-3.766,0a.773.773,0,0,1-.689-.321,16.669,16.669,0,0,0-7.256-5.051,21.791,21.791,0,0,0-11.756-.872,19.876,19.876,0,0,0-13.225,8.771,33.378,33.378,0,0,0-2.3,4.179V9.581c0-.505-.092-.689-.643-.689-2.572.046-5.189,0-7.761,0-.735,0-.735,0-.735.735V43.471c-.046.046-.092.046-.184.092a2.788,2.788,0,0,0-.321-.459c-1.791-1.883-3.582-3.811-5.419-5.694-3.766-3.857-7.439-7.852-11.159-11.756-1.791-1.883-3.536-3.766-5.327-5.648-3.582-3.444-7.026-7.026-10.47-10.654a1.107,1.107,0,0,0-.827-.321c-2.755,0-5.511.046-8.266,0-.459,0-.551.184-.551.6V57.569c0,.551.138.689.689.689,2.572-.046,5.189,0,7.761,0,.689,0,.689,0,.689-.735V23.771c.046-.046.092-.046.184-.092a4.015,4.015,0,0,0,.367.459c1.929,2.158,4,4.179,5.97,6.337,2.755,3.031,5.648,5.924,8.5,8.863,2.663,2.755,5.281,5.511,7.944,8.266,3.306,3.444,6.613,6.842,9.873,10.24a1.156,1.156,0,0,0,.918.413h8.082c.459,0,.6-.092.6-.6V45.9l.092.046a5.483,5.483,0,0,1,.367.735A20.177,20.177,0,0,0,61.3,55.961a24.16,24.16,0,0,0,10.562,2.388c6.2.092,12.353,0,18.552.046a.669.669,0,0,0,.6-.321c1.745-2.434,3.536-4.914,5.327-7.347,2.021-2.755,4.041-5.556,6.016-8.312.184-.276.321-.367.551-.046.689.872,1.424,1.7,2.158,2.572,3.628,4.408,7.256,8.771,10.883,13.179a.856.856,0,0,0,.735.321h9.138c.092,0,.276.092.367-.138l-1.929-2.342-8.4-10.194c-2.709-3.306-5.419-6.613-8.128-9.873-.23-.276-.276-.459-.046-.735,1.424-2.021,2.847-4,4.271-6.016,2.755-3.949,5.694-7.807,8.449-11.8a2.958,2.958,0,0,1,3.214-1.607c.781.092.781,0,.781.781V43.058a27.079,27.079,0,0,0,.872,6.934c1.378,5.143,4.914,7.715,9.873,8.312a32.079,32.079,0,0,0,5.556-.046,13.741,13.741,0,0,0,3.306-.505c.321-.092.413-.23.413-.6C144.376,55,144.376,52.885,144.376,50.772ZM59.743,28.363c.964-2.112,1.929-4.225,2.893-6.291.735-1.607,1.469-3.214,2.2-4.776.092-.184.092-.413.367-.413a13.541,13.541,0,0,1,6.842-1.194A11.088,11.088,0,0,1,82.2,23.174a17.1,17.1,0,0,1,1.01,5.281c.046.413-.092.551-.505.551H60.065a.682.682,0,0,1-.413-.092A.564.564,0,0,1,59.743,28.363Zm37.38,7.623C93.5,40.991,89.867,46.042,86.286,51.048a1.049,1.049,0,0,1-.964.459c-4.362,0-8.679.046-13.042-.046a15.613,15.613,0,0,1-8.358-2.617,13.5,13.5,0,0,1-5.465-7.531,26.738,26.738,0,0,1-.918-5.419c-.046-.505.092-.643.643-.643H89.959c.781,0,.781,0,.872-.735a25.758,25.758,0,0,0,.138-5.327,13.774,13.774,0,0,1,0-1.378c.551.6,1.01,1.286,1.561,1.929,1.515,1.883,3.031,3.72,4.592,5.556C97.307,35.572,97.353,35.71,97.123,35.986Z" transform="translate(0 0.2)"/><path class="b" d="M113.446,31.438c-1.1,2.388-2.2,4.73-3.306,7.118-.735,1.653-1.469,3.306-2.25,4.914-.643,1.378-1.286,2.8-1.883,4.179a7.806,7.806,0,0,1-1.469,2.158c-3.123,3.306-6.2,6.613-9.322,9.873-1.837,1.929-3.628,3.857-5.465,5.832l-.413.413a.169.169,0,0,1-.138-.046,1.823,1.823,0,0,1,.505-.918c4.133-6.2,8.312-12.353,12.4-18.552,2.25-3.4,4.5-6.842,6.8-10.194,1.975-2.939,3.949-5.924,5.924-8.863a1.187,1.187,0,0,1,.505-.551c.092,0,.138.046.092.138-.643,1.378-1.24,2.755-1.883,4.133A1.081,1.081,0,0,1,113.446,31.438Z" transform="translate(-48.238 -14.401)"/><path class="c" d="M115.2,26.467c-3.4,5.1-6.888,10.149-10.24,15.292-5.1,7.761-10.286,15.384-15.429,23.1-.138.23-.321.459-.459.689-.092,0-.138,0-.092-.092.781-1.791,1.607-3.536,2.388-5.327,2.25-4.959,4.546-9.919,6.8-14.924a11.886,11.886,0,0,1,2.434-3.214c3.26-3.536,6.521-7.118,9.781-10.654,1.515-1.653,3.077-3.306,4.592-4.959.092-.092.23-.184.321-.276C115.429,26.284,115.337,26.376,115.2,26.467Z" transform="translate(-48.109 -14.023)"/><path class="d" d="M88.77,111.7l.092.092c.046,0,.092.046.138.046a1.584,1.584,0,0,1-.413.367A.51.51,0,0,1,88.77,111.7Z" transform="translate(-47.9 -60.314)"/><path class="e" d="M146.1,26.411c.046-.092.046-.23.092-.321.138-.138.276-.138.23.092,0,.138-.138.23-.184.367C146.192,26.457,146.146,26.457,146.1,26.411Z" transform="translate(-79.009 -13.966)"/><g transform="translate(41.624 63.631)"><path class="a" d="M200.173,141.41c-.092,1.194-.138,2.25-.23,3.306,0,.276-.046.459-.413.413s-.184-.276-.184-.459c.092-1.194.138-2.388.23-3.628,0-.184-.046-.459.23-.459s.6-.092.735.321c.321.964.781,1.929,1.056,2.939a2.241,2.241,0,0,1,.138.321c.413-1.1.827-2.112,1.194-3.169a.574.574,0,0,1,.735-.413c.367.046.276.367.276.6.092,1.1.138,2.2.23,3.352,0,.23.184.551-.276.551-.413,0-.367-.276-.367-.551,0-1.056-.184-2.112-.184-3.214-.321.827-.6,1.607-.918,2.434-.138.321-.276.689-.413,1.01a.321.321,0,0,1-.367.276c-.23,0-.276-.138-.321-.321C201,143.752,200.632,142.65,200.173,141.41Z" transform="translate(-149.404 -139.558)"/><path class="a" d="M125.9,142.4v-1.378c0-.184.046-.321.276-.321s.321.092.321.321v2.158a2.674,2.674,0,0,0,.138.872.95.95,0,0,0,1.01.735,1.034,1.034,0,0,0,1.056-.735,1.785,1.785,0,0,0,.092-.689v-2.3c0-.276.092-.367.367-.367.23,0,.321.138.321.367,0,.872.046,1.745,0,2.572-.046,1.1-.735,1.653-1.975,1.607a1.479,1.479,0,0,1-1.515-1.7,4.659,4.659,0,0,1-.092-1.148Z" transform="translate(-109.71 -139.629)"/><path class="a" d="M164.8,142.94v-1.883c0-.276.092-.413.367-.367H167.1c.138,0,.321,0,.321.184,0,.23-.138.23-.321.23H165.81c-.276,0-.367.092-.367.367-.046,1.056-.046,1.056.964,1.056h.505c.184,0,.413-.046.413.23s-.23.276-.413.276H165.9c-.321,0-.459.092-.459.413-.046,1.148-.046,1.148,1.1,1.148h.735c.184,0,.276.046.276.23s-.046.276-.23.276h-2.25c-.276,0-.23-.23-.23-.413C164.8,144.18,164.8,143.583,164.8,142.94Z" transform="translate(-130.746 -139.618)"/><path class="a" d="M140.318,145.144a2.317,2.317,0,0,1-1.837-3.031,2.6,2.6,0,0,1,3.352-1.561.252.252,0,0,1,.184.276c-.046.184-.138.23-.321.184a2.826,2.826,0,0,0-.872-.092,1.767,1.767,0,0,0-1.745,2.112,1.814,1.814,0,0,0,2.342,1.515.852.852,0,0,0,.321-.092c.138-.046.23,0,.276.184.046.138,0,.23-.138.321a1.785,1.785,0,0,1-.689.092c-.138,0-.321,0-.413.138-.092.184.092.23.184.321a.453.453,0,0,1-.046.735.832.832,0,0,1-.918.046c-.046,0-.046-.092-.046-.138.046-.092.138-.092.23-.092.138,0,.367.046.459-.138.092-.23-.138-.23-.276-.321C140.043,145.511,140.456,145.328,140.318,145.144Z" transform="translate(-116.459 -139.481)"/><path class="a" d="M92.46,140.5a3.6,3.6,0,0,1,.643.092c.184.046.276.138.184.367-.046.184-.184.184-.321.138a1.55,1.55,0,0,0-.918-.092.8.8,0,0,0-.643.551.628.628,0,0,0,.413.735l.964.413a1.141,1.141,0,0,1,.781,1.24,1.474,1.474,0,0,1-1.148,1.148A3.4,3.4,0,0,1,90.9,145a.269.269,0,0,1-.23-.367c.092-.23.184-.23.367-.138a2.11,2.11,0,0,0,1.056.138.83.83,0,0,0,.735-.643.667.667,0,0,0-.459-.781c-.184-.092-.413-.184-.6-.276-.827-.321-1.24-.827-1.1-1.424A1.83,1.83,0,0,1,92.46,140.5Z" transform="translate(-90.643 -139.521)"/><path class="a" d="M309.323,145.13q-.344-.069-.827-.138c-.184-.046-.413-.092-.321-.413.092-.276.276-.184.459-.092a1.842,1.842,0,0,0,.872.138c.413-.046.735-.184.827-.6.138-.459-.138-.735-.505-.918a8.7,8.7,0,0,0-.964-.413,1.088,1.088,0,0,1-.689-1.1,1.224,1.224,0,0,1,.872-1.056,2.028,2.028,0,0,1,1.469,0c.138.046.276.092.23.276s-.138.276-.367.184a1.745,1.745,0,0,0-.964-.092c-.321.092-.505.23-.551.505a.591.591,0,0,0,.321.689,4.634,4.634,0,0,0,.689.321q1.309.551,1.1,1.515C310.885,144.717,310.242,145.13,309.323,145.13Z" transform="translate(-208.271 -139.466)"/><path class="a" d="M176.24,145.149a7.462,7.462,0,0,1-.872-.184c-.138-.046-.321-.092-.276-.321.092-.23.184-.276.413-.184a2.407,2.407,0,0,0,1.148.138.828.828,0,0,0,.689-.689.708.708,0,0,0-.459-.735,9.824,9.824,0,0,1-1.01-.459,1.11,1.11,0,0,1-.689-1.148,1.077,1.077,0,0,1,.872-1.01,2.3,2.3,0,0,1,1.469,0c.138.046.276.092.23.276a.269.269,0,0,1-.367.23,1.667,1.667,0,0,0-1.056-.046.639.639,0,0,0-.459.551.559.559,0,0,0,.321.643c.276.138.6.276.918.413a1.228,1.228,0,0,1,.872,1.469,1.3,1.3,0,0,1-1.24,1.01C176.561,145.1,176.423,145.149,176.24,145.149Z" transform="translate(-136.308 -139.486)"/><path class="a" d="M247.5,143v-1.883c0-.276.046-.413.367-.413s.321.184.321.413v3.123c0,.367.092.505.459.459a11.166,11.166,0,0,1,1.24,0c.184,0,.367,0,.367.276,0,.23-.138.23-.321.23h-2.021c-.276,0-.367-.138-.367-.413C247.546,144.236,247.5,143.593,247.5,143Z" transform="translate(-175.47 -139.629)"/><path class="a" d="M115.9,143v-1.883c0-.23,0-.413.321-.413s.367.184.367.413v2.2c0,1.378,0,1.378,1.332,1.378h.367c.184,0,.321.046.321.276s-.138.276-.321.276h-2.021c-.276,0-.367-.138-.367-.413Z" transform="translate(-104.302 -139.629)"/><path class="a" d="M258.689,143.042v1.791c0,.276-.046.413-.367.413s-.321-.184-.321-.413v-3.72c0-.23.046-.413.367-.413.276,0,.321.184.321.413Z" transform="translate(-181.148 -139.629)"/><path class="a" d="M240.8,142.95v-1.883c0-.276.092-.367.367-.367.23,0,.321.138.321.367v3.857c0,.23-.092.321-.321.321s-.321-.092-.321-.321C240.8,144.282,240.8,143.593,240.8,142.95Z" transform="translate(-171.846 -139.629)"/><path class="a" d="M289.589,143v1.837c0,.23-.046.413-.367.413s-.321-.184-.321-.413v-3.72c0-.23.046-.367.321-.413.276,0,.321.138.321.367C289.589,141.71,289.589,142.353,289.589,143Z" transform="translate(-197.858 -139.629)"/><path class="a" d="M192.8,142.95v-1.883c0-.23.046-.367.321-.367s.321.138.321.367v3.766c0,.23-.046.367-.321.367s-.321-.138-.321-.367Z" transform="translate(-145.889 -139.629)"/><path class="a" d="M155.036,138.818a.48.48,0,0,1-.689.367c-.276-.092-.505-.367-.827.046-.092.138-.276-.046-.23-.23a.452.452,0,0,1,.643-.367c.276.092.551.321.827,0C154.9,138.5,155.036,138.634,155.036,138.818Z" transform="translate(-124.519 -138.481)"/><path class="a" d="M269.286,138.428c-.459.276-.689.781-1.286.689C268.276,138.658,268.505,138.2,269.286,138.428Z" transform="translate(-186.556 -138.367)"/><path class="a" d="M216.942,140.5a2.279,2.279,0,0,0-2.342,2.388,2.211,2.211,0,0,0,2.2,2.342,2.136,2.136,0,0,0,2.2-2.342C219.054,141.418,218.274,140.5,216.942,140.5Zm.781,3.9a1.432,1.432,0,0,1-2.2-.551,2.226,2.226,0,0,1,.138-2.2,1.417,1.417,0,0,1,1.469-.643,1.615,1.615,0,0,1,1.24,1.424v.367A1.785,1.785,0,0,1,217.723,144.4Z" transform="translate(-157.678 -139.521)"/><path class="a" d="M103.7,140.5a2.206,2.206,0,0,0-2.3,2.342,2.092,2.092,0,0,0,2.112,2.342,2.146,2.146,0,0,0,2.3-2.3A2.108,2.108,0,0,0,103.7,140.5Zm1.424,2.8a1.528,1.528,0,0,1-1.7,1.378,1.72,1.72,0,0,1-1.378-1.883c0-1.286.964-2.112,2.066-1.7A1.847,1.847,0,0,1,105.12,143.3Z" transform="translate(-96.46 -139.521)"/><path class="a" d="M152.65,140.5a2.171,2.171,0,0,0-2.25,2.342,2.032,2.032,0,0,0,2.112,2.3,2.195,2.195,0,0,0,2.3-2.388A2.15,2.15,0,0,0,152.65,140.5Zm1.24,3.4a1.447,1.447,0,0,1-1.561.827,1.616,1.616,0,0,1-1.286-1.424v-.459a1.818,1.818,0,0,1,.643-1.561,1.472,1.472,0,0,1,2.3.781A2.32,2.32,0,0,1,153.89,143.9Z" transform="translate(-122.959 -139.521)"/><path class="a" d="M231.534,142.906a1.529,1.529,0,0,0-.276-.138c.413-.276.781-.6.689-1.148a1.145,1.145,0,0,0-.827-.872,3.532,3.532,0,0,0-1.7-.046c-.23.046-.321.138-.321.367v3.811c0,.184,0,.367.23.367a4.292,4.292,0,0,0,2.021-.184,1.147,1.147,0,0,0,.781-1.056A.96.96,0,0,0,231.534,142.906Zm-1.194-1.837c.6,0,1.056.321,1.01.735,0,.459-.459.735-1.148.781s-.459-.459-.459-.735C229.651,141.3,229.835,141.069,230.34,141.069Zm-.046,3.674c-.551,0-.551,0-.551-.918.138-.276-.321-.872.505-.827s1.286.321,1.286.872C231.488,144.468,231.075,144.743,230.294,144.743Z" transform="translate(-165.519 -139.585)"/><path class="a" d="M279.7,142.947a.96.96,0,0,1,.276-.184,1.257,1.257,0,0,0,.459-1.286c-.092-.505-.459-.689-.872-.827a4.137,4.137,0,0,0-1.837-.046c-.184.046-.23.138-.23.321v3.857c0,.23.092.367.367.367s.276-.184.276-.367V143.5c0-.184,0-.321.23-.367a1.039,1.039,0,0,1,1.286.735,4.3,4.3,0,0,1,.184.735c.092.413.276.6.781.413C280.347,144.371,280.439,143.5,279.7,142.947Zm-1.056-.23c-.781.046-.367-.551-.505-.781.046-.459-.184-.964.6-.918.735.046,1.148.321,1.148.827C279.888,142.4,279.383,142.672,278.648,142.718Z" transform="translate(-191.693 -139.534)"/><path class="a" d="M299.139,144.979c-.459-1.286-.918-2.526-1.378-3.811a.5.5,0,0,0-.505-.367.509.509,0,0,0-.551.413c-.413,1.194-.872,2.388-1.286,3.628-.046.138-.321.367,0,.505.276.092.459,0,.6-.321.413-1.1.413-1.1,1.607-1.1.413,0,.6.138.689.505a4.78,4.78,0,0,0,.276.735c.092.276.321.184.505.184.092,0,.184-.046.138-.184C299.185,145.071,299.139,145.025,299.139,144.979Zm-1.561-1.561c-1.056.092-1.1.046-.781-.964.138-.321.23-.689.367-1.1.23.643.413,1.148.6,1.7C297.9,143.28,297.9,143.372,297.577,143.417Z" transform="translate(-201.301 -139.683)"/><path class="a" d="M266.736,141.113a.574.574,0,0,0-1.1,0c-.459,1.24-.872,2.48-1.332,3.72-.046.138-.184.321.046.413.184.046.413.046.505-.184a5.814,5.814,0,0,0,.276-.827c.092-.321.23-.367.551-.413,1.194,0,1.24-.046,1.7,1.1.092.23.184.367.413.321.276.046.321-.046.23-.321C267.654,143.639,267.2,142.4,266.736,141.113Zm-.23,2.25c-1.056,0-1.056.046-.689-.964.138-.321.23-.689.367-1.1.23.6.413,1.148.6,1.653C266.92,143.272,266.828,143.363,266.506,143.363Z" transform="translate(-184.511 -139.629)"/></g></svg>