<svg xmlns="http://www.w3.org/2000/svg" viewBox="0 0 144.881 70.782"><defs><style>.a{fill:#fff;}.b{fill:#f39500;}.c{fill:#575656;}.d{fill:#e4ded4;}.e{fill:#f1a833;}</style></defs><g transform="translate(0 0.2)"><path class="a" d="M144.835,50.934c0-.322-.046-.461-.415-.369a18.96,18.96,0,0,1-5.574.553c-2.718-.138-4.469-1.2-5.3-4.192a17.241,17.241,0,0,1-.507-4.607C133,33.659,133.042,25,133,16.292c0-.507.184-.645.645-.645H144.1c.461,0,.645-.092.645-.6-.046-1.843-.046-3.639,0-5.482,0-.507-.138-.6-.6-.6H133.594a.55.55,0,0,1-.645-.507c-.553-2.9-1.106-5.758-1.7-8.661h-6.5V8.092c0,.875,0,.875-.829.875h-6.449a.757.757,0,0,0-.737.322c-1.7,2.4-3.409,4.745-5.113,7.094-2.948,4.054-5.851,8.108-8.8,12.162-.184.276-.322.322-.553.046-1.843-2.257-3.685-4.469-5.482-6.68-1.566-1.935-3.179-3.87-4.745-5.8a1.224,1.224,0,0,0-1.106-.507c-1.244.046-2.488,0-3.777,0a.775.775,0,0,1-.691-.322,16.722,16.722,0,0,0-7.279-5.067A21.861,21.861,0,0,0,67.4,9.336a19.939,19.939,0,0,0-13.267,8.8,33.484,33.484,0,0,0-2.3,4.192V9.612c0-.507-.092-.691-.645-.691-2.58.046-5.206,0-7.785,0-.737,0-.737,0-.737.737V43.61c-.046.046-.092.046-.184.092a2.8,2.8,0,0,0-.322-.461c-1.8-1.889-3.593-3.824-5.436-5.712-3.777-3.87-7.463-7.877-11.194-11.793-1.8-1.889-3.547-3.777-5.344-5.666-3.593-3.455-7.048-7.048-10.5-10.688a1.11,1.11,0,0,0-.829-.322c-2.764,0-5.528.046-8.292,0-.461,0-.553.184-.553.6V57.752c0,.553.138.691.691.691,2.58-.046,5.206,0,7.785,0,.691,0,.691,0,.691-.737V23.847c.046-.046.092-.046.184-.092a4.028,4.028,0,0,0,.369.461c1.935,2.165,4.008,4.192,5.989,6.357,2.764,3.04,5.666,5.943,8.522,8.891,2.672,2.764,5.3,5.528,7.97,8.292,3.317,3.455,6.634,6.864,9.9,10.273a1.16,1.16,0,0,0,.921.415h8.108c.461,0,.6-.092.6-.6V46.051l.092.046a5.5,5.5,0,0,1,.369.737A20.241,20.241,0,0,0,61.5,56.14a24.237,24.237,0,0,0,10.6,2.4c6.219.092,12.392,0,18.611.046a.671.671,0,0,0,.6-.322c1.751-2.442,3.547-4.929,5.344-7.371,2.027-2.764,4.054-5.574,6.035-8.338.184-.276.322-.369.553-.046.691.875,1.428,1.7,2.165,2.58,3.639,4.422,7.279,8.8,10.918,13.221a.859.859,0,0,0,.737.322h9.167c.092,0,.276.092.369-.138l-1.935-2.349-8.43-10.227c-2.718-3.317-5.436-6.634-8.154-9.9-.23-.276-.276-.461-.046-.737,1.428-2.027,2.856-4.008,4.284-6.035,2.764-3.962,5.712-7.831,8.476-11.839a2.967,2.967,0,0,1,3.225-1.612c.783.092.783,0,.783.783V43.2a27.165,27.165,0,0,0,.875,6.956c1.382,5.16,4.929,7.739,9.9,8.338a32.181,32.181,0,0,0,5.574-.046,13.786,13.786,0,0,0,3.317-.507c.322-.092.415-.23.415-.6C144.835,55.173,144.835,53.054,144.835,50.934Zm-84.9-22.481c.967-2.119,1.935-4.238,2.9-6.311.737-1.612,1.474-3.225,2.211-4.791.092-.184.092-.415.369-.415a13.584,13.584,0,0,1,6.864-1.2A11.123,11.123,0,0,1,82.46,23.248a17.152,17.152,0,0,1,1.013,5.3c.046.415-.092.553-.507.553H60.256a.685.685,0,0,1-.415-.092A.566.566,0,0,1,59.933,28.454Zm37.5,7.647c-3.639,5.021-7.279,10.089-10.872,15.11a1.052,1.052,0,0,1-.967.461c-4.376,0-8.707.046-13.083-.046A15.663,15.663,0,0,1,64.125,49a13.546,13.546,0,0,1-5.482-7.555,26.823,26.823,0,0,1-.921-5.436c-.046-.507.092-.645.645-.645H90.245c.783,0,.783,0,.875-.737a25.839,25.839,0,0,0,.138-5.344c-.046-.461,0-.875,0-1.382.553.6,1.013,1.29,1.566,1.935,1.52,1.889,3.04,3.731,4.607,5.574C97.616,35.686,97.662,35.824,97.432,36.1Z" transform="translate(0 0)"/><path class="b" d="M113.523,31.453c-1.106,2.4-2.211,4.745-3.317,7.14-.737,1.658-1.474,3.317-2.257,4.929-.645,1.382-1.29,2.81-1.889,4.192a7.831,7.831,0,0,1-1.474,2.165c-3.133,3.317-6.219,6.634-9.352,9.9-1.843,1.935-3.639,3.87-5.482,5.851l-.415.415A.169.169,0,0,1,89.2,66a1.829,1.829,0,0,1,.507-.921c4.146-6.219,8.338-12.392,12.438-18.611,2.257-3.409,4.515-6.864,6.818-10.227,1.981-2.948,3.962-5.943,5.943-8.891a1.191,1.191,0,0,1,.507-.553c.092,0,.138.046.092.138-.645,1.382-1.244,2.764-1.889,4.146A1.084,1.084,0,0,1,113.523,31.453Z" transform="translate(-48.108 -14.562)"/><path class="c" d="M115.283,26.469c-3.409,5.113-6.91,10.181-10.273,15.34C99.9,49.594,94.691,57.241,89.532,64.981c-.138.23-.322.461-.461.691-.092,0-.138,0-.092-.092.783-1.8,1.612-3.547,2.4-5.344,2.257-4.975,4.561-9.95,6.818-14.972a11.924,11.924,0,0,1,2.442-3.225c3.271-3.547,6.542-7.14,9.812-10.688,1.52-1.658,3.086-3.317,4.607-4.975.092-.092.23-.184.322-.276C115.513,26.284,115.421,26.376,115.283,26.469Z" transform="translate(-47.979 -14.184)"/><path class="d" d="M88.77,111.7l.092.092c.046,0,.092.046.138.046a1.589,1.589,0,0,1-.415.369A.511.511,0,0,1,88.77,111.7Z" transform="translate(-47.771 -60.351)"/><path class="e" d="M146.1,26.412c.046-.092.046-.23.092-.322.138-.138.276-.138.23.092,0,.138-.138.23-.184.369C146.192,26.458,146.146,26.458,146.1,26.412Z" transform="translate(-78.796 -14.128)"/><g transform="translate(41.757 63.634)"><path class="a" d="M200.175,141.412c-.092,1.2-.138,2.257-.23,3.317,0,.276-.046.461-.415.415s-.184-.276-.184-.461c.092-1.2.138-2.4.23-3.639,0-.184-.046-.461.23-.461s.6-.092.737.322c.322.967.783,1.935,1.06,2.948a2.247,2.247,0,0,1,.138.322c.415-1.106.829-2.119,1.2-3.179a.576.576,0,0,1,.737-.415c.369.046.276.369.276.6.092,1.106.138,2.211.23,3.363,0,.23.184.553-.276.553-.415,0-.369-.276-.369-.553,0-1.06-.184-2.119-.184-3.225-.322.829-.6,1.612-.921,2.442-.138.322-.276.691-.415,1.013a.322.322,0,0,1-.369.276c-.23,0-.276-.138-.322-.322C201,143.762,200.636,142.656,200.175,141.412Z" transform="translate(-149.245 -139.554)"/><path class="a" d="M125.9,142.4v-1.382c0-.184.046-.322.276-.322s.322.092.322.322v2.165a2.682,2.682,0,0,0,.138.875.953.953,0,0,0,1.013.737,1.038,1.038,0,0,0,1.06-.737,1.791,1.791,0,0,0,.092-.691v-2.3c0-.276.092-.369.369-.369.23,0,.322.138.322.369,0,.875.046,1.751,0,2.58-.046,1.106-.737,1.658-1.981,1.612a1.484,1.484,0,0,1-1.52-1.7,4.673,4.673,0,0,1-.092-1.152Z" transform="translate(-109.658 -139.625)"/><path class="a" d="M164.8,142.947v-1.889c0-.276.092-.415.369-.369H167.1c.138,0,.322,0,.322.184,0,.23-.138.23-.322.23h-1.29c-.276,0-.369.092-.369.369-.046,1.06-.046,1.06.967,1.06h.507c.184,0,.415-.046.415.23s-.23.276-.415.276h-1.013c-.322,0-.461.092-.461.415-.046,1.152-.046,1.152,1.106,1.152h.737c.184,0,.276.046.276.23s-.046.276-.23.276h-2.257c-.276,0-.23-.23-.23-.415C164.8,144.191,164.8,143.592,164.8,142.947Z" transform="translate(-130.638 -139.615)"/><path class="a" d="M140.324,145.159a2.325,2.325,0,0,1-1.843-3.04,2.611,2.611,0,0,1,3.363-1.566.253.253,0,0,1,.184.276c-.046.184-.138.23-.322.184a2.835,2.835,0,0,0-.875-.092,1.773,1.773,0,0,0-1.751,2.119,1.82,1.82,0,0,0,2.349,1.52.854.854,0,0,0,.322-.092c.138-.046.23,0,.276.184.046.138,0,.23-.138.322a1.79,1.79,0,0,1-.691.092c-.138,0-.322,0-.415.138-.092.184.092.23.184.322a.454.454,0,0,1-.046.737.835.835,0,0,1-.921.046c-.046,0-.046-.092-.046-.138.046-.092.138-.092.23-.092.138,0,.369.046.461-.138.092-.23-.138-.23-.276-.322C140.048,145.528,140.463,145.343,140.324,145.159Z" transform="translate(-116.389 -139.478)"/><path class="a" d="M92.466,140.5a3.614,3.614,0,0,1,.645.092c.184.046.276.138.184.369-.046.184-.184.184-.322.138a1.555,1.555,0,0,0-.921-.092.8.8,0,0,0-.645.553.63.63,0,0,0,.415.737l.967.415a1.144,1.144,0,0,1,.783,1.244,1.478,1.478,0,0,1-1.152,1.152,3.406,3.406,0,0,1-1.52-.092.269.269,0,0,1-.23-.369c.092-.23.184-.23.369-.138a2.117,2.117,0,0,0,1.06.138.832.832,0,0,0,.737-.645.669.669,0,0,0-.461-.783c-.184-.092-.415-.184-.6-.276-.829-.322-1.244-.829-1.106-1.428A1.835,1.835,0,0,1,92.466,140.5Z" transform="translate(-90.643 -139.517)"/><path class="a" d="M309.327,145.145q-.346-.069-.829-.138c-.184-.046-.415-.092-.322-.415.092-.276.276-.184.461-.092a1.847,1.847,0,0,0,.875.138c.415-.046.737-.184.829-.6.138-.461-.138-.737-.507-.921a8.727,8.727,0,0,0-.967-.415,1.091,1.091,0,0,1-.691-1.106,1.228,1.228,0,0,1,.875-1.06,2.035,2.035,0,0,1,1.474,0c.138.046.276.092.23.276s-.138.276-.369.184a1.75,1.75,0,0,0-.967-.092c-.322.092-.507.23-.553.507a.593.593,0,0,0,.322.691,4.65,4.65,0,0,0,.691.322q1.313.553,1.106,1.52C310.893,144.73,310.248,145.145,309.327,145.145Z" transform="translate(-207.953 -139.463)"/><path class="a" d="M176.243,145.164a7.485,7.485,0,0,1-.875-.184c-.138-.046-.322-.092-.276-.322.092-.23.184-.276.415-.184a2.415,2.415,0,0,0,1.152.138.831.831,0,0,0,.691-.691.711.711,0,0,0-.461-.737,9.854,9.854,0,0,1-1.013-.461,1.114,1.114,0,0,1-.691-1.152,1.081,1.081,0,0,1,.875-1.013,2.307,2.307,0,0,1,1.474,0c.138.046.276.092.23.276a.269.269,0,0,1-.369.23,1.672,1.672,0,0,0-1.06-.046.641.641,0,0,0-.461.553.56.56,0,0,0,.322.645c.276.138.6.276.921.415a1.232,1.232,0,0,1,.875,1.474,1.3,1.3,0,0,1-1.244,1.013C176.566,145.118,176.428,145.164,176.243,145.164Z" transform="translate(-136.185 -139.483)"/><path class="a" d="M247.5,143v-1.889c0-.276.046-.415.369-.415s.322.184.322.415v3.133c0,.369.092.507.461.461a11.2,11.2,0,0,1,1.244,0c.184,0,.369,0,.369.276,0,.23-.138.23-.322.23h-2.027c-.276,0-.369-.138-.369-.415C247.546,144.247,247.5,143.6,247.5,143Z" transform="translate(-175.241 -139.625)"/><path class="a" d="M115.9,143v-1.889c0-.23,0-.415.322-.415s.369.184.369.415v2.211c0,1.382,0,1.382,1.336,1.382h.369c.184,0,.322.046.322.276s-.138.276-.322.276h-2.027c-.276,0-.369-.138-.369-.415Z" transform="translate(-104.265 -139.625)"/><path class="a" d="M258.691,143.049v1.8c0,.276-.046.415-.369.415s-.322-.184-.322-.415v-3.731c0-.23.046-.415.369-.415.276,0,.322.184.322.415Z" transform="translate(-180.904 -139.625)"/><path class="a" d="M240.8,142.957v-1.889c0-.276.092-.369.369-.369.23,0,.322.138.322.369v3.87c0,.23-.092.322-.322.322s-.322-.092-.322-.322C240.8,144.293,240.8,143.6,240.8,142.957Z" transform="translate(-171.627 -139.625)"/><path class="a" d="M289.591,143v1.843c0,.23-.046.415-.369.415s-.322-.184-.322-.415v-3.731c0-.23.046-.369.322-.415.276,0,.322.138.322.369C289.591,141.713,289.591,142.358,289.591,143Z" transform="translate(-197.569 -139.625)"/><path class="a" d="M192.8,142.957v-1.889c0-.23.046-.369.322-.369s.322.138.322.369v3.777c0,.23-.046.369-.322.369s-.322-.138-.322-.369Z" transform="translate(-145.739 -139.625)"/><path class="a" d="M155.042,138.819a.481.481,0,0,1-.691.369c-.276-.092-.507-.369-.829.046-.092.138-.276-.046-.23-.23a.454.454,0,0,1,.645-.369c.276.092.553.322.829,0C154.9,138.5,155.042,138.634,155.042,138.819Z" transform="translate(-124.427 -138.481)"/><path class="a" d="M269.29,138.428c-.461.276-.691.783-1.29.691C268.276,138.659,268.507,138.2,269.29,138.428Z" transform="translate(-186.297 -138.367)"/><path class="a" d="M216.949,140.5a2.287,2.287,0,0,0-2.349,2.4,2.218,2.218,0,0,0,2.211,2.349,2.143,2.143,0,0,0,2.211-2.349C219.068,141.421,218.285,140.5,216.949,140.5Zm.783,3.916a1.437,1.437,0,0,1-2.211-.553,2.233,2.233,0,0,1,.138-2.211,1.421,1.421,0,0,1,1.474-.645,1.62,1.62,0,0,1,1.244,1.428v.369A1.791,1.791,0,0,1,217.733,144.416Z" transform="translate(-157.497 -139.517)"/><path class="a" d="M103.7,140.5a2.213,2.213,0,0,0-2.3,2.349,2.1,2.1,0,0,0,2.119,2.349,2.153,2.153,0,0,0,2.3-2.3A2.114,2.114,0,0,0,103.7,140.5Zm1.428,2.81a1.533,1.533,0,0,1-1.7,1.382,1.725,1.725,0,0,1-1.382-1.889c0-1.29.967-2.119,2.073-1.7A1.853,1.853,0,0,1,105.131,143.31Z" transform="translate(-96.445 -139.517)"/><path class="a" d="M152.657,140.5a2.177,2.177,0,0,0-2.257,2.349,2.039,2.039,0,0,0,2.119,2.3,2.2,2.2,0,0,0,2.3-2.4A2.157,2.157,0,0,0,152.657,140.5Zm1.244,3.409a1.452,1.452,0,0,1-1.566.829,1.621,1.621,0,0,1-1.29-1.428v-.461a1.823,1.823,0,0,1,.645-1.566,1.476,1.476,0,0,1,2.3.783A2.327,2.327,0,0,1,153.9,143.909Z" transform="translate(-122.872 -139.517)"/><path class="a" d="M231.542,142.914a1.533,1.533,0,0,0-.276-.138c.415-.276.783-.6.691-1.152a1.148,1.148,0,0,0-.829-.875,3.543,3.543,0,0,0-1.7-.046c-.23.046-.322.138-.322.369v3.824c0,.184,0,.369.23.369a4.306,4.306,0,0,0,2.027-.184,1.15,1.15,0,0,0,.783-1.06A.963.963,0,0,0,231.542,142.914Zm-1.2-1.843c.6,0,1.06.322,1.013.737,0,.461-.461.737-1.152.783s-.461-.461-.461-.737C229.653,141.3,229.837,141.071,230.344,141.071Zm-.046,3.685c-.553,0-.553,0-.553-.921.138-.276-.322-.875.507-.829s1.29.322,1.29.875C231.5,144.48,231.081,144.756,230.3,144.756Z" transform="translate(-165.317 -139.581)"/><path class="a" d="M279.711,142.955a.964.964,0,0,1,.276-.184,1.261,1.261,0,0,0,.461-1.29c-.092-.507-.461-.691-.875-.829a4.15,4.15,0,0,0-1.843-.046c-.184.046-.23.138-.23.322v3.87c0,.23.092.369.369.369s.276-.184.276-.369v-1.29c0-.184,0-.322.23-.369a1.043,1.043,0,0,1,1.29.737,4.315,4.315,0,0,1,.184.737c.092.415.276.6.783.415C280.356,144.383,280.448,143.508,279.711,142.955Zm-1.06-.23c-.783.046-.369-.553-.507-.783.046-.461-.184-.967.6-.921.737.046,1.152.322,1.152.829C279.9,142.4,279.389,142.679,278.652,142.725Z" transform="translate(-191.421 -139.531)"/><path class="a" d="M299.151,144.992c-.461-1.29-.921-2.534-1.382-3.824a.5.5,0,0,0-.507-.369.51.51,0,0,0-.553.415c-.415,1.2-.875,2.4-1.29,3.639-.046.138-.323.369,0,.507.276.092.461,0,.6-.322.415-1.106.415-1.106,1.612-1.106.415,0,.6.138.691.507a4.8,4.8,0,0,0,.276.737c.092.276.322.184.507.184.092,0,.184-.046.138-.184C299.2,145.084,299.151,145.038,299.151,144.992Zm-1.566-1.566c-1.06.092-1.106.046-.783-.967.138-.322.23-.691.369-1.106.23.645.415,1.152.6,1.7C297.907,143.288,297.907,143.38,297.585,143.426Z" transform="translate(-201.002 -139.679)"/><path class="a" d="M266.744,141.115a.576.576,0,0,0-1.106,0c-.461,1.244-.875,2.488-1.336,3.731-.046.138-.184.322.046.415.184.046.415.046.507-.184a5.833,5.833,0,0,0,.276-.829c.092-.322.23-.369.553-.415,1.2,0,1.244-.046,1.7,1.106.092.23.184.369.415.322.276.046.322-.046.23-.322C267.665,143.648,267.2,142.4,266.744,141.115Zm-.23,2.257c-1.06,0-1.06.046-.691-.967.138-.322.23-.691.368-1.106.23.6.415,1.152.6,1.658C266.928,143.28,266.836,143.372,266.514,143.372Z" transform="translate(-184.258 -139.625)"/></g></g></svg>