<svg xmlns="http://www.w3.org/2000/svg" viewBox="0 0 144.881 58.846"><defs><style>.a{fill:#fff;}.b{fill:#f39500;}.c{fill:#575656;}.d{fill:#e4ded4;}.e{fill:#f1a833;}</style></defs><g transform="translate(0 0.2)"><path class="a" d="M144.835,50.934c0-.322-.046-.461-.415-.369a18.96,18.96,0,0,1-5.574.553c-2.718-.138-4.469-1.2-5.3-4.192a17.241,17.241,0,0,1-.507-4.607C133,33.659,133.042,25,133,16.292c0-.507.184-.645.645-.645H144.1c.461,0,.645-.092.645-.6-.046-1.843-.046-3.639,0-5.482,0-.507-.138-.6-.6-.6H133.594a.55.55,0,0,1-.645-.507c-.553-2.9-1.106-5.758-1.7-8.661h-6.5V8.092c0,.875,0,.875-.829.875h-6.449a.757.757,0,0,0-.737.322c-1.7,2.4-3.409,4.745-5.113,7.094-2.948,4.054-5.851,8.108-8.8,12.162-.184.276-.322.322-.553.046-1.843-2.257-3.685-4.469-5.482-6.68-1.566-1.935-3.179-3.87-4.745-5.8a1.224,1.224,0,0,0-1.106-.507c-1.244.046-2.488,0-3.777,0a.775.775,0,0,1-.691-.322,16.722,16.722,0,0,0-7.279-5.067A21.861,21.861,0,0,0,67.4,9.336a19.939,19.939,0,0,0-13.267,8.8,33.484,33.484,0,0,0-2.3,4.192V9.612c0-.507-.092-.691-.645-.691-2.58.046-5.206,0-7.785,0-.737,0-.737,0-.737.737V43.61c-.046.046-.092.046-.184.092a2.8,2.8,0,0,0-.322-.461c-1.8-1.889-3.593-3.824-5.436-5.712-3.777-3.87-7.463-7.877-11.194-11.793-1.8-1.889-3.547-3.777-5.344-5.666-3.593-3.455-7.048-7.048-10.5-10.688a1.11,1.11,0,0,0-.829-.322c-2.764,0-5.528.046-8.292,0-.461,0-.553.184-.553.6V57.752c0,.553.138.691.691.691,2.58-.046,5.206,0,7.785,0,.691,0,.691,0,.691-.737V23.847c.046-.046.092-.046.184-.092a4.028,4.028,0,0,0,.369.461c1.935,2.165,4.008,4.192,5.989,6.357,2.764,3.04,5.666,5.943,8.522,8.891,2.672,2.764,5.3,5.528,7.97,8.292,3.317,3.455,6.634,6.864,9.9,10.273a1.16,1.16,0,0,0,.921.415h8.108c.461,0,.6-.092.6-.6V46.051l.092.046a5.5,5.5,0,0,1,.369.737A20.241,20.241,0,0,0,61.5,56.14a24.237,24.237,0,0,0,10.6,2.4c6.219.092,12.392,0,18.611.046a.671.671,0,0,0,.6-.322c1.751-2.442,3.547-4.929,5.344-7.371,2.027-2.764,4.054-5.574,6.035-8.338.184-.276.322-.369.553-.046.691.875,1.428,1.7,2.165,2.58,3.639,4.422,7.279,8.8,10.918,13.221a.859.859,0,0,0,.737.322h9.167c.092,0,.276.092.369-.138l-1.935-2.349-8.43-10.227c-2.718-3.317-5.436-6.634-8.154-9.9-.23-.276-.276-.461-.046-.737,1.428-2.027,2.856-4.008,4.284-6.035,2.764-3.962,5.712-7.831,8.476-11.839a2.967,2.967,0,0,1,3.225-1.612c.783.092.783,0,.783.783V43.2a27.165,27.165,0,0,0,.875,6.956c1.382,5.16,4.929,7.739,9.9,8.338a32.181,32.181,0,0,0,5.574-.046,13.786,13.786,0,0,0,3.317-.507c.322-.092.415-.23.415-.6C144.835,55.173,144.835,53.054,144.835,50.934Zm-84.9-22.481c.967-2.119,1.935-4.238,2.9-6.311.737-1.612,1.474-3.225,2.211-4.791.092-.184.092-.415.369-.415a13.584,13.584,0,0,1,6.864-1.2A11.123,11.123,0,0,1,82.46,23.248a17.152,17.152,0,0,1,1.013,5.3c.046.415-.092.553-.507.553H60.256a.685.685,0,0,1-.415-.092A.566.566,0,0,1,59.933,28.454Zm37.5,7.647c-3.639,5.021-7.279,10.089-10.872,15.11a1.052,1.052,0,0,1-.967.461c-4.376,0-8.707.046-13.083-.046A15.663,15.663,0,0,1,64.125,49a13.546,13.546,0,0,1-5.482-7.555,26.823,26.823,0,0,1-.921-5.436c-.046-.507.092-.645.645-.645H90.245c.783,0,.783,0,.875-.737a25.839,25.839,0,0,0,.138-5.344c-.046-.461,0-.875,0-1.382.553.6,1.013,1.29,1.566,1.935,1.52,1.889,3.04,3.731,4.607,5.574C97.616,35.686,97.662,35.824,97.432,36.1Z" transform="translate(0 0)"/><path class="b" d="M113.523,31.453c-1.106,2.4-2.211,4.745-3.317,7.14-.737,1.658-1.474,3.317-2.257,4.929-.645,1.382-1.29,2.81-1.889,4.192a7.831,7.831,0,0,1-1.474,2.165c-3.133,3.317-6.219,6.634-9.352,9.9-1.843,1.935-3.639,3.87-5.482,5.851l-.415.415A.169.169,0,0,1,89.2,66a1.829,1.829,0,0,1,.507-.921c4.146-6.219,8.338-12.392,12.438-18.611,2.257-3.409,4.515-6.864,6.818-10.227,1.981-2.948,3.962-5.943,5.943-8.891a1.191,1.191,0,0,1,.507-.553c.092,0,.138.046.092.138-.645,1.382-1.244,2.764-1.889,4.146A1.084,1.084,0,0,1,113.523,31.453Z" transform="translate(-48.108 -14.562)"/><path class="c" d="M115.283,26.469c-3.409,5.113-6.91,10.181-10.273,15.34C99.9,49.594,94.691,57.241,89.532,64.981c-.138.23-.322.461-.461.691-.092,0-.138,0-.092-.092.783-1.8,1.612-3.547,2.4-5.344,2.257-4.975,4.561-9.95,6.818-14.972a11.924,11.924,0,0,1,2.442-3.225c3.271-3.547,6.542-7.14,9.812-10.688,1.52-1.658,3.086-3.317,4.607-4.975.092-.092.23-.184.322-.276C115.513,26.284,115.421,26.376,115.283,26.469Z" transform="translate(-47.979 -14.184)"/><path class="d" d="M88.77,111.7l.092.092c.046,0,.092.046.138.046a1.589,1.589,0,0,1-.415.369A.511.511,0,0,1,88.77,111.7Z" transform="translate(-47.771 -60.351)"/><path class="e" d="M146.1,26.412c.046-.092.046-.23.092-.322.138-.138.276-.138.23.092,0,.138-.138.23-.184.369C146.192,26.458,146.146,26.458,146.1,26.412Z" transform="translate(-78.796 -14.128)"/></g></svg>