<svg id="Group_1623" data-name="Group 1623" xmlns="http://www.w3.org/2000/svg" width="144.422" height="58.658" viewBox="0 0 144.422 58.658">
  <path id="Path_394" data-name="Path 394" d="M144.376,50.772c0-.321-.046-.459-.413-.367a18.9,18.9,0,0,1-5.556.551c-2.709-.138-4.454-1.194-5.281-4.179a17.186,17.186,0,0,1-.505-4.592c-.046-8.633,0-17.266-.046-25.945,0-.505.184-.643.643-.643h10.424c.459,0,.643-.092.643-.6-.046-1.837-.046-3.628,0-5.465,0-.505-.138-.6-.6-.6H133.171a.548.548,0,0,1-.643-.505c-.551-2.893-1.1-5.74-1.7-8.633h-6.475V8.066c0,.872,0,.872-.827.872H117.1a.754.754,0,0,0-.735.321c-1.7,2.388-3.4,4.73-5.1,7.072-2.939,4.041-5.832,8.082-8.771,12.123-.184.276-.321.321-.551.046-1.837-2.25-3.674-4.454-5.465-6.659-1.561-1.929-3.169-3.857-4.73-5.786a1.22,1.22,0,0,0-1.1-.505c-1.24.046-2.48,0-3.766,0a.773.773,0,0,1-.689-.321,16.669,16.669,0,0,0-7.256-5.051,21.791,21.791,0,0,0-11.756-.872,19.876,19.876,0,0,0-13.225,8.771,33.378,33.378,0,0,0-2.3,4.179V9.581c0-.505-.092-.689-.643-.689-2.572.046-5.189,0-7.761,0-.735,0-.735,0-.735.735V43.471c-.046.046-.092.046-.184.092a2.788,2.788,0,0,0-.321-.459c-1.791-1.883-3.582-3.811-5.419-5.694-3.766-3.857-7.439-7.852-11.159-11.756-1.791-1.883-3.536-3.766-5.327-5.648-3.582-3.444-7.026-7.026-10.47-10.654a1.107,1.107,0,0,0-.827-.321c-2.755,0-5.511.046-8.266,0-.459,0-.551.184-.551.6V57.569c0,.551.138.689.689.689,2.572-.046,5.189,0,7.761,0,.689,0,.689,0,.689-.735V23.771c.046-.046.092-.046.184-.092a4.015,4.015,0,0,0,.367.459c1.929,2.158,4,4.179,5.97,6.337,2.755,3.031,5.648,5.924,8.5,8.863,2.663,2.755,5.281,5.511,7.944,8.266,3.306,3.444,6.613,6.842,9.873,10.24a1.156,1.156,0,0,0,.918.413h8.082c.459,0,.6-.092.6-.6V45.9l.092.046a5.483,5.483,0,0,1,.367.735A20.177,20.177,0,0,0,61.3,55.961a24.16,24.16,0,0,0,10.562,2.388c6.2.092,12.353,0,18.552.046a.669.669,0,0,0,.6-.321c1.745-2.434,3.536-4.914,5.327-7.347,2.021-2.755,4.041-5.556,6.016-8.312.184-.276.321-.367.551-.046.689.872,1.424,1.7,2.158,2.572,3.628,4.408,7.256,8.771,10.883,13.179a.856.856,0,0,0,.735.321h9.138c.092,0,.276.092.367-.138l-1.929-2.342-8.4-10.194c-2.709-3.306-5.419-6.613-8.128-9.873-.23-.276-.276-.459-.046-.735,1.424-2.021,2.847-4,4.271-6.016,2.755-3.949,5.694-7.807,8.449-11.8a2.958,2.958,0,0,1,3.214-1.607c.781.092.781,0,.781.781V43.058a27.079,27.079,0,0,0,.872,6.934c1.378,5.143,4.914,7.715,9.873,8.312a32.079,32.079,0,0,0,5.556-.046,13.741,13.741,0,0,0,3.306-.505c.321-.092.413-.23.413-.6C144.376,55,144.376,52.885,144.376,50.772ZM59.743,28.363c.964-2.112,1.929-4.225,2.893-6.291.735-1.607,1.469-3.214,2.2-4.776.092-.184.092-.413.367-.413a13.541,13.541,0,0,1,6.842-1.194A11.088,11.088,0,0,1,82.2,23.174a17.1,17.1,0,0,1,1.01,5.281c.046.413-.092.551-.505.551H60.065a.682.682,0,0,1-.413-.092A.564.564,0,0,1,59.743,28.363Zm37.38,7.623C93.5,40.991,89.867,46.042,86.286,51.048a1.049,1.049,0,0,1-.964.459c-4.362,0-8.679.046-13.042-.046a15.613,15.613,0,0,1-8.358-2.617,13.5,13.5,0,0,1-5.465-7.531,26.738,26.738,0,0,1-.918-5.419c-.046-.505.092-.643.643-.643H89.959c.781,0,.781,0,.872-.735a25.758,25.758,0,0,0,.138-5.327,13.774,13.774,0,0,1,0-1.378c.551.6,1.01,1.286,1.561,1.929,1.515,1.883,3.031,3.72,4.592,5.556C97.307,35.572,97.353,35.71,97.123,35.986Z" transform="translate(0 0.2)" fill="#575656"/>
  <path id="Path_395" data-name="Path 395" d="M113.446,31.438c-1.1,2.388-2.2,4.73-3.306,7.118-.735,1.653-1.469,3.306-2.25,4.914-.643,1.378-1.286,2.8-1.883,4.179a7.806,7.806,0,0,1-1.469,2.158c-3.123,3.306-6.2,6.613-9.322,9.873-1.837,1.929-3.628,3.857-5.465,5.832l-.413.413a.169.169,0,0,1-.138-.046,1.823,1.823,0,0,1,.505-.918c4.133-6.2,8.312-12.353,12.4-18.552,2.25-3.4,4.5-6.842,6.8-10.194,1.975-2.939,3.949-5.924,5.924-8.863a1.187,1.187,0,0,1,.505-.551c.092,0,.138.046.092.138-.643,1.378-1.24,2.755-1.883,4.133A1.081,1.081,0,0,1,113.446,31.438Z" transform="translate(-48.238 -14.401)" fill="#f39500"/>
  <path id="Path_396" data-name="Path 396" d="M115.2,26.467c-3.4,5.1-6.888,10.149-10.24,15.292-5.1,7.761-10.286,15.384-15.429,23.1-.138.23-.321.459-.459.689-.092,0-.138,0-.092-.092.781-1.791,1.607-3.536,2.388-5.327,2.25-4.959,4.546-9.919,6.8-14.924a11.886,11.886,0,0,1,2.434-3.214c3.26-3.536,6.521-7.118,9.781-10.654,1.515-1.653,3.077-3.306,4.592-4.959.092-.092.23-.184.321-.276C115.429,26.284,115.337,26.376,115.2,26.467Z" transform="translate(-48.109 -14.023)" fill="#fff"/>
  <path id="Path_397" data-name="Path 397" d="M88.77,111.7l.092.092c.046,0,.092.046.138.046a1.584,1.584,0,0,1-.413.367A.51.51,0,0,1,88.77,111.7Z" transform="translate(-47.9 -60.314)" fill="#e4ded4"/>
  <path id="Path_398" data-name="Path 398" d="M146.1,26.411c.046-.092.046-.23.092-.321.138-.138.276-.138.23.092,0,.138-.138.23-.184.367C146.192,26.457,146.146,26.457,146.1,26.411Z" transform="translate(-79.009 -13.966)" fill="#f1a833"/>
</svg>
