<?xml version="1.0" encoding="utf-8"?>
<!-- Generator: Adobe Illustrator 25.0.0, SVG Export Plug-In . SVG Version: 6.00 Build 0)  -->
<svg version="1.1" id="Layer_1" xmlns="http://www.w3.org/2000/svg" xmlns:xlink="http://www.w3.org/1999/xlink" x="0px" y="0px"
     viewBox="0 0 3039.8 1491.1" style="enable-background:new 0 0 3039.8 1491.1;" xml:space="preserve">
<style type="text/css">
	.st0{fill:#FF6B00;}
  .st1{fill:#ffffff;}
</style>
  <path class="st0" d="M44.7,1383.3c6.6,4,20.3,8.5,30.9,8.5c10.8,0,15.3-3.5,15.3-9.4c0-6.1-3.5-9-16.8-13.4c-24.1-8-33.3-21-33-34.7
	c0-21.7,18.4-38,46.9-38c13.4,0,25.2,3.3,32.3,6.8l-6.1,24.8c-5.2-2.8-15.3-6.6-25-6.6c-8.7,0-13.7,3.5-13.7,9.2s4.5,8.5,18.6,13.4
	c21.9,7.6,30.9,18.9,31.1,35.6c0,21.7-16.8,37.5-49.8,37.5c-15.1,0-28.5-3.5-37.3-8.2L44.7,1383.3z"/>
  <path class="st0" d="M300.4,1355.4c0,42.2-30,61.6-60.9,61.6c-33.7,0-59.7-22.2-59.7-59.4c0-37.5,24.5-61.3,61.8-61.3
	C276.8,1296.2,300.4,1320.5,300.4,1355.4z M216.9,1356.6c0,19.8,8.3,34.7,23.6,34.7c14.2,0,22.9-13.9,22.9-34.9
	c0-17-6.6-34.4-22.9-34.4C223.5,1321.9,216.9,1339.6,216.9,1356.6z"/>
  <path class="st0" d="M361.7,1246.9h35.9v167.5h-35.9V1246.9z"/>
  <path class="st0" d="M574.5,1377.4c0,15.1,0.5,27.4,0.9,37h-31.1l-1.7-16.3h-0.7c-4.5,7.1-15.3,18.9-36.1,18.9
	c-23.6,0-40.6-14.6-40.6-50.2V1299h35.9v62c0,16.8,5.4,26.9,18.2,26.9c9.9,0,15.8-6.8,17.9-12.5c0.9-2.1,1.4-4.7,1.4-7.8V1299h35.9
	L574.5,1377.4L574.5,1377.4z"/>
  <path class="st0" d="M729,1411.6c-5.2,2.6-14.9,4.7-26.4,5.2l-4.5,8.3c9,2.1,17.2,8,17.2,18.9c0,16.5-14.6,21.9-28.3,21.9
	c-6.8,0-14.4-1.4-19.8-4.5l4.5-14.6c3.5,1.9,9,3.3,13.2,3.3c4.7,0,8.5-1.4,8.5-5.9c0-4.7-5.4-7.3-18.6-8.7l9.4-19.8
	c-30-4.5-48.4-25.9-48.4-57.8c0-33.7,23.1-61.3,66.1-61.3c9.4,0,19.8,1.6,27.4,4.5l-5.7,26.7c-4.2-1.9-10.6-3.5-20.1-3.5
	c-18.9,0-31.1,13.4-30.9,32.3c0,21.2,14.2,32.6,31.4,32.6c8.7,0,15.3-1.4,20.8-3.8L729,1411.6z"/>
  <path class="st0" d="M899.3,1355.4c0,42.2-30,61.6-60.9,61.6c-33.7,0-59.7-22.2-59.7-59.4c0-37.5,24.5-61.3,61.8-61.3
	C875.8,1296.2,899.3,1320.5,899.3,1355.4z M805.5,1282.8c-0.7-19.8,7.3-30.9,19.3-30.9c5.9,0,10.8,2.4,15.3,4.7
	c3.8,2.1,7.1,4.5,9.9,4.5c3.8,0,5.4-2.1,6.1-10.4h16.5c0.7,21.5-6.8,30.2-19.3,30.2c-6.6,0-11.3-2.6-16-4.9
	c-4.2-2.4-6.1-3.8-9.2-3.8c-3.3,0-5.2,3.5-5.7,10.6L805.5,1282.8L805.5,1282.8z M815.8,1356.6c0,19.8,8.3,34.7,23.6,34.7
	c14.1,0,22.9-13.9,22.9-34.9c0-17-6.6-34.4-22.9-34.4C822.4,1321.9,815.8,1339.6,815.8,1356.6z"/>
  <path class="st0" d="M989,1368.2c0.9,14.9,15.8,21.9,32.6,21.9c12.3,0,22.2-1.6,31.9-4.9l4.7,24.3c-11.8,4.9-26.2,7.3-41.8,7.3
	c-39.2,0-61.6-22.6-61.6-58.7c0-29.2,18.2-61.6,58.3-61.6c37.3,0,51.4,29,51.4,57.6c0,6.1-0.7,11.6-1.2,14.2L989,1368.2L989,1368.2z
	 M1031.2,1343.6c0-8.7-3.8-23.4-20.3-23.4c-15.1,0-21.2,13.9-22.2,23.4H1031.2z"/>
  <path class="st0" d="M1124.9,1383.3c6.6,4,20.3,8.5,30.9,8.5c10.9,0,15.3-3.5,15.3-9.4c0-6.1-3.5-9-16.8-13.4
	c-24.1-8-33.3-21-33-34.7c0-21.7,18.4-38,46.9-38c13.4,0,25.2,3.3,32.3,6.8l-6.1,24.8c-5.2-2.8-15.3-6.6-25-6.6
	c-8.7,0-13.7,3.5-13.7,9.2s4.5,8.5,18.6,13.4c21.9,7.6,30.9,18.9,31.1,35.6c0,21.7-16.8,37.5-49.8,37.5c-15.1,0-28.5-3.5-37.3-8.2
	L1124.9,1383.3z"/>
  <path class="st0" d="M1390.5,1267c0,9.9-7.3,17.9-19.3,17.9c-11.3,0-18.6-8-18.6-17.9c0-10.1,7.6-17.9,19.1-17.9
	C1383.2,1249,1390.3,1256.8,1390.5,1267z M1353.5,1414.4V1299h35.9v115.4H1353.5z"/>
  <path class="st0" d="M1457.3,1335.8c0-14.4-0.5-26.4-0.9-36.8h30.4l1.4,15.6h0.7c4.9-7.6,15.3-18.4,34.9-18.4
	c15.1,0,26.7,7.8,31.6,19.8h0.5c4.5-6.1,9.4-10.9,15.1-14.1c6.4-3.5,13.4-5.7,21.9-5.7c22.2,0,38.9,15.6,38.9,50.2v67.9h-34.9v-62.8
	c0-16.8-5.4-26.4-17-26.4c-8.5,0-14.1,5.7-16.8,12.5c-0.7,2.6-1.2,6.1-1.2,9.2v67.5h-34.9v-64.9c0-14.4-5.2-24.3-16.8-24.3
	c-9.2,0-14.6,7.1-16.8,12.7c-1.2,2.8-1.4,6.1-1.4,9.2v67.2h-34.9L1457.3,1335.8L1457.3,1335.8z"/>
  <path class="st0" d="M1813.2,1355.4c0,42.2-30,61.6-60.9,61.6c-33.7,0-59.7-22.2-59.7-59.4c0-37.5,24.5-61.3,61.8-61.3
	C1789.6,1296.2,1813.2,1320.5,1813.2,1355.4z M1729.7,1356.6c0,19.8,8.3,34.7,23.6,34.7c14.2,0,22.9-13.9,22.9-34.9
	c0-17-6.6-34.4-22.9-34.4C1736.3,1321.9,1729.7,1339.6,1729.7,1356.6z"/>
  <path class="st0" d="M1874.6,1246.9h35.9v65.8h0.5c6.8-9.9,18.9-16.3,34.9-16.3c27.6,0,47.6,22.9,47.4,58.3
	c0,41.5-26.2,62.3-52.6,62.3c-13.4,0-26.7-4.9-34.7-18.6h-0.5l-1.4,16h-30.4c0.5-7.6,0.9-21.5,0.9-34.4L1874.6,1246.9L1874.6,1246.9
	z M1910.4,1365.3c0,2.4,0.2,4.5,0.7,6.4c2.4,9.4,10.6,17,21,17c15.3,0,24.8-11.8,24.8-32.6c0-17.9-8-32.1-24.8-32.1
	c-9.7,0-18.6,7.3-21,17.7c-0.5,2.1-0.7,4.2-0.7,6.6V1365.3z"/>
  <path class="st0" d="M2091.8,1267c0,9.9-7.3,17.9-19.3,17.9c-11.3,0-18.6-8-18.6-17.9c0-10.1,7.6-17.9,19.1-17.9
	C2084.5,1249,2091.6,1256.8,2091.8,1267z M2054.8,1414.4V1299h35.9v115.4H2054.8z"/>
  <path class="st0" d="M2158.6,1246.9h35.9v167.5h-35.9V1246.9z"/>
  <path class="st0" d="M2299.7,1267c0,9.9-7.3,17.9-19.3,17.9c-11.3,0-18.6-8-18.6-17.9c0-10.1,7.6-17.9,19.1-17.9
	C2292.3,1249,2299.4,1256.8,2299.7,1267z M2262.6,1414.4V1299h35.9v115.4H2262.6z"/>
  <path class="st0" d="M2462.4,1386.6c0,10.9,0.5,21.5,1.9,27.8H2432l-2.1-11.6h-0.7c-7.6,9.2-19.3,14.1-33,14.1
	c-23.4,0-37.3-17-37.3-35.4c0-30,26.9-44.1,67.7-44.1v-1.4c0-6.4-3.3-15.1-21-15.1c-11.8,0-24.3,4-31.9,8.7l-6.6-23.1
	c8-4.5,23.8-10.4,44.8-10.4c38.4,0,50.5,22.6,50.5,50L2462.4,1386.6L2462.4,1386.6z M2427.8,1359.9c-18.9,0-33.5,4.5-33.5,18.2
	c0,9.2,6.1,13.7,14.1,13.7c8.7,0,16.3-5.9,18.6-13.2c0.5-1.9,0.7-4,0.7-6.1L2427.8,1359.9L2427.8,1359.9z"/>
  <path class="st0" d="M2530.1,1337c0-17-0.2-28.1-0.9-38h30.7l1.4,21.2h0.9c5.9-17,19.8-24.1,31.1-24.1c3.3,0,4.9,0.2,7.6,0.7v33.7
	c-2.8-0.5-5.7-0.9-9.7-0.9c-13.2,0-22.2,7.1-24.5,18.2c-0.5,2.4-0.7,5.2-0.7,8v58.5h-35.9L2530.1,1337L2530.1,1337z"/>
  <path class="st0" d="M2696,1267c0,9.9-7.3,17.9-19.3,17.9c-11.3,0-18.6-8-18.6-17.9c0-10.1,7.6-17.9,19.1-17.9
	C2688.7,1249,2695.7,1256.8,2696,1267z M2658.9,1414.4V1299h35.9v115.4H2658.9z"/>
  <path class="st0" d="M2858.7,1386.6c0,10.9,0.5,21.5,1.9,27.8h-32.3l-2.1-11.6h-0.7c-7.6,9.2-19.3,14.1-33,14.1
	c-23.4,0-37.3-17-37.3-35.4c0-30,26.9-44.1,67.7-44.1v-1.4c0-6.4-3.3-15.1-21-15.1c-11.8,0-24.3,4-31.9,8.7l-6.6-23.1
	c8-4.5,23.8-10.4,44.8-10.4c38.4,0,50.5,22.6,50.5,50L2858.7,1386.6L2858.7,1386.6z M2824.1,1359.9c-18.9,0-33.5,4.5-33.5,18.2
	c0,9.2,6.1,13.7,14.1,13.7c8.7,0,16.3-5.9,18.6-13.2c0.5-1.9,0.7-4,0.7-6.1L2824.1,1359.9L2824.1,1359.9z"/>
  <path class="st0" d="M2926.2,1383.3c6.6,4,20.3,8.5,30.9,8.5c10.9,0,15.3-3.5,15.3-9.4c0-6.1-3.5-9-16.8-13.4
	c-24.1-8-33.3-21-33-34.7c0-21.7,18.4-38,47-38c13.4,0,25.2,3.3,32.3,6.8l-6.1,24.8c-5.2-2.8-15.3-6.6-25-6.6
	c-8.7,0-13.7,3.5-13.7,9.2s4.5,8.5,18.6,13.4c21.9,7.6,30.9,18.9,31.1,35.6c0,21.7-16.8,37.5-49.8,37.5c-15.1,0-28.5-3.5-37.3-8.2
	L2926.2,1383.3z"/>
  <polygon class="st1" points="2163.2,679.4 2070.6,778.3 2241.3,1026.4 2470.7,1026.4 2191.7,620.7 "/>
  <polygon class="st1" points="2445.4,99.3 2092,475.7 1921.9,228.3 1692.4,228.3 1972,634.9 1717.7,1155.4 "/>
  <path class="st1" d="M477.3,212.3c-132.5,0-219.2,75.2-255.1,137.4h-4.9l-9.8-119.4h-175c3.3,68.7,6.5,145.6,6.5,237.1v559.3h201.2
	V557.3c0-22.9,3.3-47.4,9.8-63.8c21.3-60.5,76.9-117.8,157-117.8C516.5,375.8,559,462.5,559,577v449.7h201.2V554.1
	C760.2,302.2,616.3,212.3,477.3,212.3z"/>
  <path class="st1" d="M1313,212.3c-255.1,0-389.2,207.7-389.2,428.5c0,243.7,152.1,402.3,410.5,402.3c114.5,0,209.3-21.3,278-50.7
	L1582.8,855c-62.1,21.3-127.6,36-220.8,36c-129.2,0-240.4-62.2-245.3-206.1h533.2c3.3-18,6.5-47.4,6.5-85
	C1656.4,424.9,1571.4,212.3,1313,212.3z M1466.7,544.3h-350c8.2-81.8,60.5-194.6,184.8-194.6
	C1435.6,349.6,1468.4,470.7,1466.7,544.3z"/>
  <path class="st1" d="M2812.7,25.8l-197.9,55.6v148.8H2502v150.5h112.9v374.5c0,104.7,19.6,178.3,63.8,224.1
	c37.6,40.9,98.1,65.4,173.4,65.4c62.1,0,120.8-10.9,152.1-25v-150c-22.9,6.5-52.3,9.8-88.3,9.8c-76.9,0-103-49.1-103-147.2V380.7
	H3004V230.3h-191.4L2812.7,25.8L2812.7,25.8z"/>
  <polygon class="st0" points="1717.7,1155.4 2445.4,99.3 2163.2,679.4 "/>
</svg>
