<svg xmlns="http://www.w3.org/2000/svg" width="73.34" height="29.787" viewBox="0 0 73.34 29.787">
  <g id="Group_1712" data-name="Group 1712" transform="translate(0 0.199)">
    <path id="Path_236" data-name="Path 236" d="M73.317,25.685c0-.163-.023-.233-.21-.187a9.6,9.6,0,0,1-2.822.28A2.579,2.579,0,0,1,67.6,23.656a8.727,8.727,0,0,1-.257-2.332c-.023-4.384,0-8.768-.023-13.176,0-.257.093-.326.326-.326h5.294c.233,0,.326-.047.326-.3-.023-.933-.023-1.842,0-2.775,0-.257-.07-.3-.3-.3h-5.34a.278.278,0,0,1-.326-.257c-.28-1.469-.56-2.915-.863-4.384H63.149V4c0,.443,0,.443-.42.443H59.465a.383.383,0,0,0-.373.163c-.863,1.213-1.726,2.4-2.588,3.591-1.492,2.052-2.962,4.1-4.454,6.156-.093.14-.163.163-.28.023-.933-1.143-1.866-2.262-2.775-3.381-.793-.979-1.609-1.959-2.4-2.938a.619.619,0,0,0-.56-.257c-.63.023-1.259,0-1.912,0a.392.392,0,0,1-.35-.163A8.465,8.465,0,0,0,40.086,5.07a11.066,11.066,0,0,0-5.97-.443A10.093,10.093,0,0,0,27.4,9.081,16.95,16.95,0,0,0,26.234,11.2V4.767c0-.257-.047-.35-.326-.35-1.306.023-2.635,0-3.941,0-.373,0-.373,0-.373.373V21.977c-.023.023-.047.023-.093.047a1.416,1.416,0,0,0-.163-.233c-.909-.956-1.819-1.936-2.752-2.892-1.912-1.959-3.778-3.988-5.667-5.97-.909-.956-1.8-1.912-2.705-2.868C8.4,8.312,6.646,6.493,4.9,4.65a.562.562,0,0,0-.42-.163c-1.4,0-2.8.023-4.2,0-.233,0-.28.093-.28.3V29.136c0,.28.07.35.35.35,1.306-.023,2.635,0,3.941,0,.35,0,.35,0,.35-.373V11.973c.023-.023.047-.023.093-.047a2.039,2.039,0,0,0,.187.233c.979,1.1,2.029,2.122,3.032,3.218,1.4,1.539,2.868,3.008,4.314,4.5,1.353,1.4,2.682,2.8,4.034,4.2,1.679,1.749,3.358,3.475,5.014,5.2a.587.587,0,0,0,.466.21h4.1c.233,0,.3-.047.3-.3v-5.97l.047.023a2.784,2.784,0,0,1,.187.373,10.246,10.246,0,0,0,4.711,4.711A12.269,12.269,0,0,0,36.5,29.532c3.148.047,6.273,0,9.421.023a.34.34,0,0,0,.3-.163c.886-1.236,1.8-2.5,2.705-3.731,1.026-1.4,2.052-2.822,3.055-4.221.093-.14.163-.187.28-.023.35.443.723.863,1.1,1.306,1.842,2.239,3.684,4.454,5.527,6.693a.435.435,0,0,0,.373.163H63.9c.047,0,.14.047.187-.07L63.1,28.32l-4.267-5.177c-1.376-1.679-2.752-3.358-4.128-5.014-.117-.14-.14-.233-.023-.373.723-1.026,1.446-2.029,2.169-3.055,1.4-2.005,2.892-3.964,4.291-5.993a1.5,1.5,0,0,1,1.632-.816c.4.047.4,0,.4.4V21.767a13.751,13.751,0,0,0,.443,3.521,5.424,5.424,0,0,0,5.014,4.221,16.29,16.29,0,0,0,2.822-.023,6.978,6.978,0,0,0,1.679-.257c.163-.047.21-.117.21-.3C73.317,27.83,73.317,26.757,73.317,25.685ZM30.339,14.3c.49-1.073.979-2.145,1.469-3.195.373-.816.746-1.632,1.119-2.425.047-.093.047-.21.187-.21a6.876,6.876,0,0,1,3.475-.606,5.631,5.631,0,0,1,5.154,3.8,8.682,8.682,0,0,1,.513,2.682c.023.21-.047.28-.257.28H30.5a.347.347,0,0,1-.21-.047A.286.286,0,0,1,30.339,14.3Zm18.982,3.871c-1.842,2.542-3.684,5.107-5.5,7.649a.533.533,0,0,1-.49.233c-2.215,0-4.407.023-6.623-.023a7.929,7.929,0,0,1-4.244-1.329,6.857,6.857,0,0,1-2.775-3.824,13.578,13.578,0,0,1-.466-2.752c-.023-.257.047-.326.326-.326H45.683c.4,0,.4,0,.443-.373a13.08,13.08,0,0,0,.07-2.705c-.023-.233,0-.443,0-.7.28.3.513.653.793.979.77.956,1.539,1.889,2.332,2.822C49.414,17.966,49.437,18.036,49.321,18.176Z" transform="translate(0 0)" fill="#fff"/>
    <path id="Path_237" data-name="Path 237" d="M101.513,29.155c-.56,1.213-1.119,2.4-1.679,3.615-.373.84-.746,1.679-1.143,2.5-.326.7-.653,1.422-.956,2.122a3.964,3.964,0,0,1-.746,1.1c-1.586,1.679-3.148,3.358-4.734,5.014-.933.979-1.842,1.959-2.775,2.962l-.21.21a.086.086,0,0,1-.07-.023.926.926,0,0,1,.257-.466c2.1-3.148,4.221-6.273,6.3-9.421,1.143-1.726,2.285-3.475,3.451-5.177,1-1.492,2.005-3.008,3.008-4.5a.6.6,0,0,1,.257-.28c.047,0,.07.023.047.07-.326.7-.63,1.4-.956,2.1A.549.549,0,0,1,101.513,29.155Z" transform="translate(-68.399 -20.704)" fill="#f39500"/>
    <path id="Path_238" data-name="Path 238" d="M102.285,26.287c-1.726,2.588-3.5,5.154-5.2,7.765-2.588,3.941-5.224,7.812-7.835,11.73-.07.117-.163.233-.233.35-.047,0-.07,0-.047-.047.4-.909.816-1.8,1.213-2.705,1.143-2.519,2.309-5.037,3.451-7.579a6.036,6.036,0,0,1,1.236-1.632c1.656-1.8,3.311-3.615,4.967-5.41.77-.84,1.562-1.679,2.332-2.519.047-.047.117-.093.163-.14C102.4,26.193,102.355,26.24,102.285,26.287Z" transform="translate(-68.216 -20.167)" fill="#575656"/>
    <path id="Path_239" data-name="Path 239" d="M88.673,111.7l.047.047c.023,0,.047.023.07.023a.8.8,0,0,1-.21.187A.259.259,0,0,1,88.673,111.7Z" transform="translate(-67.919 -85.805)" fill="#e4ded4"/>
    <path id="Path_240" data-name="Path 240" d="M146.1,26.206c.023-.047.023-.117.047-.163.07-.07.14-.07.117.047,0,.07-.07.117-.093.187C146.147,26.23,146.123,26.23,146.1,26.206Z" transform="translate(-112.03 -20.087)" fill="#f1a833"/>
  </g>
</svg>
