<svg width="90" height="37" viewBox="0 0 90 37" fill="none" xmlns="http://www.w3.org/2000/svg">
<g clip-path="url(#clip0)">
<path d="M89.9714 32.151C89.9714 31.9486 89.9428 31.8612 89.7136 31.919C88.5828 32.2078 87.4159 32.325 86.251 32.2667C84.5626 32.18 83.4749 31.5122 82.9587 29.631C82.7254 28.6841 82.6194 27.7098 82.6437 26.7343C82.6195 21.2892 82.6456 15.8448 82.6195 10.3695C82.6195 10.0508 82.7338 9.96398 83.0202 9.96398H89.5148C89.8012 9.96398 89.9155 9.90614 89.9155 9.58673C89.8869 8.42792 89.8869 7.29867 89.9155 6.13986C89.9155 5.82108 89.8298 5.76261 89.5428 5.76261H82.9885C82.9411 5.77112 82.8925 5.7694 82.8459 5.75758C82.7992 5.74575 82.7555 5.72408 82.7177 5.69399C82.6799 5.66389 82.6487 5.62605 82.6264 5.58294C82.604 5.53984 82.5909 5.49243 82.5878 5.44383C82.2443 3.62042 81.9008 1.82343 81.5318 -0.00186157H77.494V5.2137C77.494 5.76387 77.494 5.76387 76.979 5.76387H72.9729C72.8855 5.75067 72.7962 5.76266 72.7152 5.79847C72.6343 5.83427 72.5649 5.89245 72.5151 5.96633C71.459 7.47535 70.3974 8.94979 69.3389 10.4267C67.5076 12.9757 65.7043 15.5247 63.8723 18.0737C63.758 18.2473 63.6723 18.2762 63.5288 18.1026C62.3839 16.6835 61.2397 15.2927 60.1234 13.9025C59.1506 12.6859 58.1486 11.4692 57.1758 10.2557C57.0987 10.1466 56.9947 10.0597 56.8742 10.0038C56.7537 9.94789 56.6208 9.92484 56.4888 9.93695C55.716 9.96587 54.9432 9.93695 54.1425 9.93695C54.0598 9.9435 53.9768 9.9283 53.9016 9.89283C53.8264 9.85736 53.7615 9.80281 53.7132 9.73448C52.5168 8.27993 50.9546 7.17924 49.1915 6.54856C46.8471 5.6872 44.3136 5.49598 41.8688 5.99588C40.1933 6.29573 38.5968 6.94179 37.1788 7.89375C35.7609 8.84572 34.5519 10.0832 33.6274 11.529C33.0897 12.372 32.6122 13.2528 32.1986 14.1647V6.16942C32.1986 5.85064 32.1415 5.73494 31.7979 5.73494C30.1953 5.76387 28.564 5.73494 26.9619 5.73494C26.5041 5.73494 26.5041 5.73494 26.5041 6.19834V27.546C26.4755 27.5749 26.4469 27.5749 26.3898 27.6038C26.3329 27.5007 26.2659 27.4036 26.1898 27.314C25.0716 26.1263 23.9578 24.9096 22.8129 23.7225C20.4666 21.2892 18.1769 18.7698 15.8592 16.3075C14.7411 15.1198 13.6558 13.9327 12.5395 12.745C10.3076 10.5726 8.16131 8.31349 6.01693 6.0248C5.94952 5.95694 5.86897 5.90393 5.78035 5.86909C5.69173 5.83425 5.59695 5.81833 5.50196 5.82234C3.78496 5.82234 2.06796 5.85126 0.35097 5.82234C0.0645966 5.82234 0.00744629 5.93803 0.00744629 6.1996V36.4379C0.00744629 36.7856 0.0931718 36.8724 0.436695 36.8724C2.03939 36.8435 3.67066 36.8724 5.27273 36.8724C5.70198 36.8724 5.70198 36.8724 5.70198 36.409V15.1198C5.73056 15.0909 5.75913 15.0909 5.81628 15.062C5.88558 15.1641 5.96219 15.261 6.04551 15.3518C7.24753 16.7131 8.53527 17.9876 9.76587 19.3489C11.4829 21.2603 13.2856 23.0856 15.0597 24.9392C16.7196 26.677 18.3521 28.4149 20.0107 30.1528C22.0712 32.3252 24.1317 34.4686 26.1606 36.6121C26.2303 36.6964 26.318 36.7637 26.4171 36.8089C26.5162 36.8541 26.6241 36.876 26.7327 36.873H31.7694C32.0557 36.873 32.1421 36.8152 32.1421 36.4958V29.0808L32.1992 29.1097C32.287 29.2582 32.3636 29.4131 32.4285 29.5731C33.6563 32.1199 35.6887 34.1792 38.2038 35.4244C40.2575 36.4254 42.509 36.9414 44.7885 36.9334C48.6517 36.9912 52.4864 36.9334 56.3496 36.9623C56.4239 36.9653 56.4977 36.9481 56.5632 36.9125C56.6288 36.8769 56.6837 36.8242 56.7223 36.7598C57.8101 35.2244 58.9257 33.6607 60.042 32.1253C61.3012 30.3874 62.5604 28.6205 63.791 26.8827C63.9053 26.7091 63.991 26.6506 64.1345 26.8537C64.5637 27.4039 65.0216 27.9226 65.4794 28.4759C67.7399 31.2563 70.0011 34.009 72.2616 36.7888C72.3158 36.8578 72.3859 36.9123 72.4657 36.9476C72.5455 36.9829 72.6326 36.9979 72.7195 36.9912H78.414C78.4711 36.9912 78.5854 37.0491 78.6432 36.9045L77.4412 35.4275L72.2045 28.9972C70.5161 26.9116 68.8276 24.826 67.1392 22.7724C66.9964 22.5989 66.9678 22.4826 67.1106 22.3091C67.9977 21.0346 68.8848 19.789 69.7719 18.5145C71.4889 16.0233 73.3202 13.5907 75.0372 11.0706C75.2148 10.7024 75.5072 10.4037 75.8693 10.2205C76.2314 10.0373 76.643 9.97986 77.0405 10.057C77.5269 10.1149 77.5269 10.057 77.5269 10.5494V27.2882C77.5207 28.7637 77.7034 30.2339 78.0705 31.6619C78.929 34.9063 81.1324 36.5278 84.2204 36.9045C85.3732 36.9962 86.5317 36.9865 87.6829 36.8755C88.38 36.8546 89.072 36.7475 89.7434 36.5568C89.9435 36.4989 90.0012 36.4121 90.0012 36.1795C89.9714 34.8163 89.9714 33.484 89.9714 32.151ZM37.2316 18.0159C37.8323 16.6835 38.4336 15.3512 39.0331 14.0478C39.4909 13.0342 39.9487 12.02 40.4065 11.0354C40.4637 10.9197 40.4637 10.7745 40.6358 10.7745C41.9681 10.152 43.4377 9.89192 44.8997 10.0199C46.3031 10.0636 47.6602 10.5389 48.79 11.3827C49.9199 12.2265 50.7689 13.3987 51.2241 14.7432C51.6062 15.8134 51.8186 16.9382 51.8534 18.0756C51.8819 18.3365 51.7962 18.4233 51.5384 18.4233H37.431C37.3412 18.4322 37.2509 18.4119 37.1732 18.3655C37.1518 18.3073 37.1459 18.2445 37.1559 18.1833C37.1659 18.1221 37.1916 18.0646 37.2303 18.0165L37.2316 18.0159ZM60.5266 22.824C58.266 25.981 56.0048 29.1676 53.7729 32.3246C53.7076 32.4229 53.6174 32.5017 53.5117 32.5527C53.406 32.6037 53.2888 32.625 53.1722 32.6144C50.4538 32.6144 47.7634 32.6433 45.045 32.5855C43.1881 32.55 41.3801 31.9773 39.8344 30.935C38.1791 29.81 36.9723 28.1265 36.429 26.1847C36.1228 25.0683 35.9311 23.923 35.8569 22.7668C35.8283 22.448 35.914 22.3612 36.2575 22.3612H56.0601C56.5465 22.3612 56.5465 22.3612 56.6037 21.8978C56.747 20.7838 56.7757 19.6578 56.6894 18.5378C56.6608 18.2479 56.6894 17.9876 56.6894 17.6688C57.0329 18.0461 57.3187 18.4799 57.6622 18.8855C58.6064 20.0732 59.5507 21.2314 60.5241 22.3902C60.639 22.5637 60.6676 22.6505 60.5247 22.824H60.5266Z" fill="#575656"/>
<path d="M40.6358 10.7461C39.9488 12.2552 39.2623 13.7296 38.5753 15.2355C38.1175 16.278 37.6596 17.3211 37.1732 18.3346C36.7726 19.2036 36.3719 20.1015 35.9998 20.9704C35.7722 21.473 35.4627 21.9332 35.0841 22.3317C33.1379 24.4173 31.2209 26.5029 29.2747 28.5564C28.1298 29.773 27.0141 30.9897 25.8693 32.2353L25.6115 32.4962C25.5961 32.4981 25.5805 32.4966 25.5658 32.4917C25.5511 32.4868 25.5376 32.4787 25.5264 32.4679C25.5731 32.2478 25.6826 32.0465 25.8413 31.8888C28.4168 27.9786 31.0209 24.0972 33.5678 20.187C34.9698 18.0435 36.3725 15.8712 37.8031 13.7566C39.0337 11.9031 40.2643 10.0199 41.4949 8.16633C41.5602 8.01912 41.6706 7.89716 41.8099 7.81863C41.867 7.81863 41.8956 7.84755 41.867 7.9054C41.4663 8.77434 41.0942 9.64329 40.6936 10.5122C40.6882 10.5931 40.6686 10.6723 40.6358 10.7461Z" fill="#F39500"/>
<path d="M41.8093 7.85007C39.6916 11.0649 37.5168 14.2515 35.4277 17.4952C32.2533 22.3901 29.0175 27.1983 25.8127 32.0649C25.727 32.2095 25.6127 32.3547 25.5264 32.4993C25.4692 32.4993 25.4406 32.4993 25.4692 32.4415C25.9556 31.3097 26.4706 30.2113 26.9601 29.0814C28.3621 25.9533 29.7934 22.8252 31.1954 19.6676C31.5833 18.9092 32.0963 18.2234 32.7124 17.6399C34.7444 15.4097 36.7763 13.1505 38.8076 10.9197C39.7518 9.87719 40.7246 8.83408 41.6695 7.79159C41.7266 7.73375 41.8124 7.6759 41.8695 7.61806C41.9521 7.73375 41.895 7.79159 41.8093 7.85007Z" fill="#575656"/>
</g>
<defs>
<clipPath id="clip0">
<rect width="90" height="37" fill="white"/>
</clipPath>
</defs>
</svg>
